<svg xmlns="http://www.w3.org/2000/svg" width="45.231" height="42.309" viewBox="0 0 45.231 42.309">
  <g id="합치기_33" data-name="합치기 33" transform="translate(2050.412 -1259.31)" fill="#fff">
    <path d="M -2017.956665039062 1301.118774414062 L -2037.699096679688 1301.118774414062 C -2040.73193359375 1301.118774414062 -2043.199340820312 1298.6513671875 -2043.199340820312 1295.618408203125 L -2043.199340820312 1283.944580078125 L -2043.199340820312 1283.444580078125 L -2043.699340820312 1283.444580078125 L -2047.405517578125 1283.444580078125 C -2048.654541015625 1283.444580078125 -2049.423828125 1282.632080078125 -2049.7275390625 1281.871826171875 C -2050.031005859375 1281.111694335938 -2050.03271484375 1279.992919921875 -2049.12744140625 1279.132934570312 L -2029.518310546875 1260.497436523438 C -2029.051635742188 1260.054321289062 -2028.43994140625 1259.810180664062 -2027.796020507812 1259.810180664062 C -2027.152221679688 1259.810180664062 -2026.540771484375 1260.054321289062 -2026.074340820312 1260.497436523438 L -2006.465209960938 1279.1328125 C -2005.559936523438 1279.992919921875 -2005.561645507812 1281.111694335938 -2005.865234375 1281.871826171875 C -2006.168823242188 1282.632080078125 -2006.938232421875 1283.444580078125 -2008.187133789062 1283.444580078125 L -2011.957275390625 1283.444580078125 L -2012.457275390625 1283.444580078125 L -2012.457275390625 1283.944580078125 L -2012.457275390625 1295.618408203125 C -2012.457275390625 1298.6513671875 -2014.92431640625 1301.118774414062 -2017.956665039062 1301.118774414062 Z" stroke="none"/>
    <path d="M -2017.956665039062 1300.618774414062 C -2015.199951171875 1300.618774414062 -2012.957275390625 1298.375610351562 -2012.957275390625 1295.618408203125 L -2012.957275390625 1283.944580078125 L -2012.957275390625 1282.944580078125 L -2011.957275390625 1282.944580078125 L -2008.187133789062 1282.944580078125 C -2007.18798828125 1282.944580078125 -2006.572387695312 1282.294677734375 -2006.32958984375 1281.686401367188 C -2006.086791992188 1281.078369140625 -2006.085327148438 1280.183349609375 -2006.8095703125 1279.495239257812 L -2026.418823242188 1260.859985351562 C -2026.791870117188 1260.505493164062 -2027.281005859375 1260.310180664062 -2027.796020507812 1260.310180664062 C -2028.311157226562 1260.310180664062 -2028.800659179688 1260.505493164062 -2029.173950195312 1260.85986328125 L -2048.783203125 1279.495361328125 C -2049.50732421875 1280.183471679688 -2049.506103515625 1281.078247070312 -2049.26318359375 1281.686401367188 C -2049.020263671875 1282.294677734375 -2048.40478515625 1282.944580078125 -2047.405517578125 1282.944580078125 L -2043.699340820312 1282.944580078125 L -2042.699340820312 1282.944580078125 L -2042.699340820312 1283.944580078125 L -2042.699340820312 1295.618408203125 C -2042.699340820312 1298.375610351562 -2040.456176757812 1300.618774414062 -2037.699096679688 1300.618774414062 L -2017.956665039062 1300.618774414062 M -2017.956665039062 1301.618774414062 L -2037.699096679688 1301.618774414062 C -2041.012817382812 1301.618774414062 -2043.699340820312 1298.932250976562 -2043.699340820312 1295.618408203125 L -2043.699340820312 1283.944580078125 L -2047.405517578125 1283.944580078125 C -2050.115478515625 1283.944580078125 -2051.436767578125 1280.637084960938 -2049.471923828125 1278.770385742188 L -2029.86279296875 1260.135009765625 C -2029.28369140625 1259.585083007812 -2028.539794921875 1259.310180664062 -2027.796020507812 1259.310180664062 C -2027.05224609375 1259.310180664062 -2026.30859375 1259.585083007812 -2025.72998046875 1260.135009765625 L -2006.120727539062 1278.770385742188 C -2004.156005859375 1280.637084960938 -2005.477294921875 1283.944580078125 -2008.187133789062 1283.944580078125 L -2011.957275390625 1283.944580078125 L -2011.957275390625 1295.618408203125 C -2011.957275390625 1298.932250976562 -2014.642822265625 1301.618774414062 -2017.956665039062 1301.618774414062 Z" stroke="none" fill="#707070"/>
  </g>
</svg>
