<svg xmlns="http://www.w3.org/2000/svg" width="50" height="50" viewBox="0 0 50 50">
  <g id="그룹_2" data-name="그룹 2" transform="translate(-85 -277)">
    <g id="사각형_662" data-name="사각형 662" transform="translate(85 277)" fill="#fff" stroke="#969191" stroke-width="3">
      <rect width="50" height="50" rx="20" stroke="none"/>
      <rect x="1.5" y="1.5" width="47" height="47" rx="18.5" fill="none"/>
    </g>
    <path id="패스_209" data-name="패스 209" d="M15.028,25.437s-1.961-3.8-3.443-5.953A27.635,27.635,0,0,0,9.417,16.6s-1.266-1.353-2.855-2.739a12.839,12.839,0,0,0-3.818-2.583A22.393,22.393,0,0,0-1.717,9.7L4.415,5.182,15.028,15.309a81.656,81.656,0,0,1,7.5-8.7A61.139,61.139,0,0,1,30.708,0a11.169,11.169,0,0,0,.949,4.027c.8,1.324,1.31,1.57,1.31,1.57a46.266,46.266,0,0,0-11.307,8.489A36.53,36.53,0,0,0,15.028,25.437Z" transform="matrix(0.995, -0.105, 0.105, 0.995, 92.857, 291.446)" fill="#ef6555"/>
  </g>
</svg>
