<svg xmlns="http://www.w3.org/2000/svg" xmlns:xlink="http://www.w3.org/1999/xlink" width="36.918" height="37" viewBox="0 0 36.918 37">
  <defs>
    <clipPath id="clip-path">
      <rect width="36.918" height="37" fill="none"/>
    </clipPath>
  </defs>
  <g id="Notifications" clip-path="url(#clip-path)">
    <path id="패스_1" data-name="패스 1" d="M34.706,32.375H23.11a4.639,4.639,0,0,1-9.277,0H2.237A2.227,2.227,0,0,1,.149,30.756a2.464,2.464,0,0,1,.7-2.544,9.3,9.3,0,0,0,3.711-7.4V13.875a13.916,13.916,0,0,1,27.831,0v6.938a9.3,9.3,0,0,0,3.711,7.4,2.186,2.186,0,0,1,.7,2.544A2.227,2.227,0,0,1,34.706,32.375Z" transform="translate(-0.063)" fill="#fff" fill-rule="evenodd"/>
  </g>
</svg>
